<svg id="Layer_1" data-name="Layer 1" xmlns="http://www.w3.org/2000/svg" width="13.58in" height="20.2in" viewBox="0 0 977.94 1454.11">
  <defs>
    <style>
      .cls-1 {
        fill: #f68d3e;
      }
    </style>
  </defs>
  <title>tornpaper</title>
  <g>
    <path class="cls-1" d="M437.15,1023.39,418,1065.57Q-44,855.81-506.16,646L-36.48-388.53,446.85-169.1c-.55,1.53-1.11,3-.43,4.37a5,5,0,0,1-.09,4,9.48,9.48,0,0,0-.36,2.49,8,8,0,0,1-2.59,4.89c-.74.76-1.81,1-2.46,1.8a22.55,22.55,0,0,0-1.45,3.08,19.54,19.54,0,0,1-1.52,2.12,6.27,6.27,0,0,0-1.16,1.77,5.55,5.55,0,0,1-2.08,3.13,2.77,2.77,0,0,0-1.08,2.62,3.56,3.56,0,0,1-.1,1.58c-.67,1.94-1.34,3.91-2.17,5.79s-1.58,3.43-1.3,5.26a3.8,3.8,0,0,1-.39,1.64,31.57,31.57,0,0,1-1.77,4,9.27,9.27,0,0,0-1.2,6.14,25.27,25.27,0,0,1,.69,3.69,33.63,33.63,0,0,1-.76,4.58c-.05.27,0,.55,0,.82-.81,3.13-1.82,6.32-4.08,8.53-1.79,1.76-2.51,4.26-4.07,6.1a2.79,2.79,0,0,0-.35,1.6c0,2.61.89,4.36,2.76,5.15,1.37.58,3.09.55,3.89,2.44a9,9,0,0,0-1.61,2.31A10.93,10.93,0,0,1,418.84-73a19.35,19.35,0,0,0-3.25,3.16c-1.71,2.09-3.4,4.27-2.9,7.24a30.84,30.84,0,0,1,.2,3.8l2.15,1a28.56,28.56,0,0,0-1,4.8,68.13,68.13,0,0,1-.8,8.35,4.4,4.4,0,0,0,0,2.36c1,2.39.75,5.3.33,8.29l-3,3.22c.2,1.86.4,3.64.6,5.44l-1.79,2.9,0,4c-.92,1.37-1.75,2.3-2.86,2.21a3.55,3.55,0,0,0-3.16,1.72,21.66,21.66,0,0,0-2.68,4.5c-1.17,3-2.34,6.15-.86,8.73a2.61,2.61,0,0,1,.07,1.54c-1.06,4.93.16,8.73,1,12.63l2-.17c-.72,2.1.91,3.65-.86,5.8.16,1.68-.25,3.88.77,4.82,1.23,1.14,1.37,3.54,3.08,4.07.33.1.6,1.13.44,1.65-.84,2.64-.66,5.26-1.91,7.95a13.33,13.33,0,0,0-1.13,9.3c.5,1.72.95,3.49,1.48,5.43a26.48,26.48,0,0,0-2.37,2,14.69,14.69,0,0,0-1.43,2c.66,1.16,1.2,2.13,1.81,3.22l-2.9,2.2a11.88,11.88,0,0,1-1.29,7.11,6.66,6.66,0,0,0-.6,4.14c.47,2.73,1,5.42,1.61,8.07a9.62,9.62,0,0,0,1,2.64c1.42,2.45,2.08,5.49,3,8.38.66,2.18.4,5,1.74,6.73a2.53,2.53,0,0,1-.18,1.93c-.86,1.43-.64,2.62-.78,4-.21,2,.44,3.3.81,4.85s1,2.73.64,4.54a13.19,13.19,0,0,0,.28,5.14c.4,2.24,1.06,4.35,0,7.15a5.52,5.52,0,0,0,0,2.39c.13,1.16.43,2.25.48,3.44a8.64,8.64,0,0,1-.34,3.27c-1.42,3.64-1.32,6.66.12,9.25a7,7,0,0,0-1.23,4.6,6.08,6.08,0,0,1-.13,2.06,7.22,7.22,0,0,0,1,5.86c1,1.44,1,3.19,1.07,5a70,70,0,0,0,1,8.72A12,12,0,0,0,406.7,173a12.12,12.12,0,0,0,.23,2.66c0,1.21-.06,2.46-.1,3.75l-1.45,2.66a20.29,20.29,0,0,0,1.51,9.67c-.32,2-.61,3.69-.83,5.33-.31,2.37-.38,4.73-.91,7.09-.74,3.31-.62,6.07.84,8.34-2.27,6-1.79,10.34,2.31,12.43a9.37,9.37,0,0,0,.14,2.83,17.58,17.58,0,0,1,.93,5.23,18.92,18.92,0,0,0,.35,1.88c.49,2.31,1.35,4.15,3.47,4.4a.73.73,0,0,1,.3.07c1.28.59,1.46,2,.41,3.59-.48.73-1.13,1.31-1.56,2.06a4.07,4.07,0,0,0-.66,2c.26,2.32.62,4.59,1.05,6.81.28,1.49.72,2.88,1.09,4.31l0-.17a7.2,7.2,0,0,0,.71,4.06,5.42,5.42,0,0,1,.31,3.85,15.83,15.83,0,0,0,.09,8.36,11.7,11.7,0,0,1-.3,7.28c-.87,2.27-.64,3.46.46,4.58-2.16,2.82-2.41,5.33-1.12,7.79a5.37,5.37,0,0,0-1.47,3.44c0,1.53,1.17,1.78,1.67,2.77-.69,1.88-1.36,3.68-2,5.49a9.3,9.3,0,0,0-.67,2.51,60.41,60.41,0,0,0,.3,6.79,7.42,7.42,0,0,0,1.16,2.4,1.08,1.08,0,0,1,0,.36,28.66,28.66,0,0,0-1.61,3.62,21.29,21.29,0,0,1-2.25,5.7,9.56,9.56,0,0,0-.94,3.31c-.35,2-.39,4-.92,5.91s-1.41,3.82-.63,5.54a2.93,2.93,0,0,1-.19,1.65,15.94,15.94,0,0,0-.57,8.23c-.91,1.75-1.79,3.45-2.66,5.16a33.18,33.18,0,0,0-3.45,12.06c-.21,2.44.76,4.52-.24,7.24-.17.45.09,1,.15,1.54.11.9.15,1.83.32,2.68.72,3.43,1.17,7.06,3.11,9.53a5,5,0,0,1,1.27,3.26c0,1.94,1,3,1.73,4.18,1,1.63,5.67,5.76,7.48,6.55a2.68,2.68,0,0,1,1.56,1.94c.26,1,.41,2,.68,2.91.75,2.73,1.57,5.38,4,6.29a1.75,1.75,0,0,1,1,1.15,1.79,1.79,0,0,0,2.16,1.5c1.36-.13,2.13.77,2.62,2,1,2.61,2,5.32,2.93,8a5.83,5.83,0,0,1,.15,3.52,13.66,13.66,0,0,0,0,6.43c.3,1.33.45,2.75.68,4.24-2.51,2.82-3.19,6.09-3.86,9.52-.78,4,1.14,6.05,2,9.13a8.49,8.49,0,0,0-.09,6.47,19.73,19.73,0,0,1,2.31,1.54,10.07,10.07,0,0,1,1.91,2.09c.84,1.27,1.57,2.68,2.52,4.32a6,6,0,0,0,.08,3.84,12.34,12.34,0,0,1,.79,4.87,10.13,10.13,0,0,0,1.52,6,3.89,3.89,0,0,1,.56,1.69c.08,2.22.11,4.48.06,6.75,0,2.44,0,4.79,1.28,6.39l2.22,2.82c-.8,4.4-.79,4.38,1.52,7.06a6.36,6.36,0,0,1,1.69,3.75c.18,1.89,1.5,3.07,1.23,5.31,1.3,3.41,2,7.32,4.13,10a5,5,0,0,1,.72,2.39c.22,2.64.57,5.17,1.84,7-2.2,2.68-2.22,2.7-1.08,4.92a6.26,6.26,0,0,1,.75,3.22c0,1.36.22,2.63.21,4a4.62,4.62,0,0,0,.92,3.08,26.77,26.77,0,0,1,2.11,2.89,4.83,4.83,0,0,1,.88,2.24c.13,2.65.05,5.38.1,8.05,0,1.33.18,2.61.3,4.21-1.29,2.19-2.63,4.65-4.14,7a6.87,6.87,0,0,0-1.42,4.44c.26,2.3-.47,4.71-.76,7.06a12.08,12.08,0,0,1-2.68,6.34c-.82,1-1.52,2.11-2.5,3.5,1,1.66,0,3.83-.56,5.93.7,2.26-.57,5-.63,7.38a7.93,7.93,0,0,1-1.5,4c-1.77,2.85-3.51,5.83-3.1,9.24a3.71,3.71,0,0,1-.31,1.65c-.9,2.22-.53,4.42-1.53,6.7a3.86,3.86,0,0,0,.21,3c1.35,1.8,1.38,4,.43,6.71a12.36,12.36,0,0,0-.11,1.25,53.08,53.08,0,0,1-1.85,7.46c-1.22,3.29-1.71,6.69-.66,9.69a16.24,16.24,0,0,1,.88,7.13c-.18,1.88-.77,4,.21,5.47.14.21,0,.79-.07,1.2a37.1,37.1,0,0,0-.56,5c.05,2.45-.77,5.5,1.29,6.75.14.09.21.38.25.62.29,1.89.56,3.8.86,5.69.12.76.12,1.73.5,2.15a4.15,4.15,0,0,1,.89,3.43c-.19,2,.65,3.16,2,3.6.68.22,1.41.29,2.09.52a1.56,1.56,0,0,1,1,.72,7.36,7.36,0,0,1,.31,6.14c-1.34,3.2-.95,6.1-1.39,9.13a2.33,2.33,0,0,0,.23,1.47c.78,1.16.78,2.82,1,4.31a64.57,64.57,0,0,0,1.44,6.62c.56,1.86,1.42,3.46,1.22,5.84a3.49,3.49,0,0,0,.72,2,12.79,12.79,0,0,0,1.41,1.76,4,4,0,0,1,.78,3.54c-.15.84-.3,1.67-.44,2.49C452,755,454,758,453.65,762.91c0,.14,0,.28,0,.43s-.21.54-.33.8-.29.52-.42.79c-1.28,2.82-1.17,5.1.45,6.45,1,.86,2.31,1.37,2.76,2.66-.32,1.94-.66,3.6-.84,5.23-.06.61.12,1.47.46,1.65,2.39,1.25,3.49,4,4.79,6.57a2.31,2.31,0,0,0,2.24,1.41,12,12,0,0,1,2-.14c.76.16,1.68.2,1.81,1.44-1.67,1.9-1.73,2-1.23,3.59.3.91.63,1.79,1,2.76l2.3-.42a23,23,0,0,0,3.26,8.94,6.4,6.4,0,0,1-3.46,2.82,43.71,43.71,0,0,0-5.31,2.48,10.23,10.23,0,0,0-5.33,6.66c-.4,1.53-1.49,3.13-1.59,4.53a22.74,22.74,0,0,1-1.08,5,3.25,3.25,0,0,0-.21,1.25c.5,2.68.21,6,2.34,7.42a2,2,0,0,1,.88,1.34,17.58,17.58,0,0,1,.17,4.71,4.79,4.79,0,0,0,.74,4,10.55,10.55,0,0,1,2.14,6,3.64,3.64,0,0,0,1.51,3c1.39.85,2.26,2.48,3.91,3s1.69,2.43.75,4.67c-.28.68-.66,1.32-.89,1.78-1,.66-1.79,1.21-2.89,2,1.48,2.29,2.9,4.21,4.06,6.39s2.08,4.65,3.1,7c-.31,1.5-.62,3-1,4.91l-3.4,4.11c0,1.67,0,3.36.85,4.66,1,1.54,1.12,3.59.95,5.93s-.89,4.82.23,6.61c.15.23-.06.82,0,1.22a31.09,31.09,0,0,0,.32,4.28,24.24,24.24,0,0,1,.59,5.8,15.11,15.11,0,0,0,.9,5.62,8.3,8.3,0,0,1,.26,5.41,7.84,7.84,0,0,0-.11,2.81,23.31,23.31,0,0,1-.63,8.88,6.13,6.13,0,0,0,.14,4.61,1.45,1.45,0,0,1-.14.4c-1.38,1.92-2.11,3.81-1.4,5.86a4.47,4.47,0,0,1-.54,3.42c-1.3,1.12-2.86,2-4,3.88a10.61,10.61,0,0,1-4,3.83c-2.44,1.45-5.07,2.93-6.57,6.54-2.33-.15-3.91,1.74-5.38,4.06a28,28,0,0,1-2.52,3.53,8.2,8.2,0,0,0-1.77,5.08,16.42,16.42,0,0,0,.06,2.26c-.62,1.06-1.11,2-1.68,2.82a5.83,5.83,0,0,0-1.06,5.13,4.56,4.56,0,0,1,.13,2.68c-.6,1.36,0,2.42-.5,3.6a13.9,13.9,0,0,0-.95,4.18,17.69,17.69,0,0,1-.94,3.76c-.67,2.08-1.47,4.1-1,6.12a5.93,5.93,0,0,1-.47,2.5,10.4,10.4,0,0,0-.24,6.06C437.11,1020.78,436.87,1022.19,437.15,1023.39Z" transform="translate(506.16 388.53)"/>
    <path class="cls-1" d="M413.82,258.1a4.42,4.42,0,0,1,2.7-2.05c.29-.09.73,0,.83.2a3.07,3.07,0,0,1,.28,1.73,1.25,1.25,0,0,1-1.38,1,17.31,17.31,0,0,1-2.45-1.1Z" transform="translate(506.16 388.53)"/>
  </g>
</svg>
